<svg width="1223" height="1265" viewBox="0 0 1223 1265" fill="none" xmlns="http://www.w3.org/2000/svg">
<path fill-rule="evenodd" clip-rule="evenodd" d="M417.285 213.663C572.846 244.368 735.461 94.6565 868.066 180.869C986.384 257.793 831.158 427.251 910.306 534.2C1025.31 689.604 1182.86 703.84 1215.45 877.27C1243.71 1027.65 1186.58 1115.98 1027.95 1160.27C886.917 1199.64 721.583 1130.74 566.239 1124.51C480.513 1121.07 394.899 1114.1 315.05 1131.68C205.378 1155.82 128.442 1236.29 13.5732 1246.18C-134.244 1258.91 -325.206 1297.51 -437.363 1196.45C-548.826 1096.03 -407.911 939.138 -466.469 813.667C-527.721 682.421 -743.494 611.135 -773.732 475.711C-802.588 346.476 -714.944 225.083 -616.957 139.673C-522.32 57.183 -377.966 28.51 -238.562 9.23013C-118.312 -7.40085 10.6867 -2.39964 133.498 35.8816C242.255 69.7822 306.29 191.755 417.285 213.663Z" fill="#D8E4EF" fill-opacity="0.42"/>
</svg>
